<?xml version="1.0" encoding="utf-8"?>
<!-- Generator: Adobe Illustrator 24.0.2, SVG Export Plug-In . SVG Version: 6.00 Build 0)  -->
<svg version="1.1" id="Capa_1" xmlns="http://www.w3.org/2000/svg" xmlns:xlink="http://www.w3.org/1999/xlink" x="0px" y="0px"
	 viewBox="0 0 1080 1080" style="enable-background:new 0 0 1080 1080;" xml:space="preserve">
<style type="text/css">
	.st0{fill:#6A1A6A;}
	.st1{fill:#FFFFFF;}
</style>
<rect x="0.33" class="st0" width="1080" height="1080"/>
<g>
	<g>
		<path class="st1" d="M438.03,420.63v16.71h232.75v24.41c0,9.45-0.59,18.62-1.82,27.49l18.51-47.12l2.44,6.21v-27.7H438.03z
			 M606.04,602.85l-0.02,0.02c-2.62,2.29-5.32,4.54-8.09,6.73c-22.2,17.59-46.97,30.98-74.33,40.18
			c-27.36,9.23-55.23,13.82-83.59,13.82c-34.73,0-67.14-6.69-97.26-20.08c-30.11-13.39-56.42-31.93-78.95-55.6
			s-40.11-51.21-52.75-82.6c-12.64-31.39-18.97-64.97-18.97-100.75c0-33.21,5.6-65.24,16.81-96.12
			c11.21-30.85,27.58-58.54,49.12-83.07s47.69-43.97,78.46-58.35c30.77-14.33,65.72-21.53,104.84-21.53
			c41.1,0,78.42,8.04,111.94,24.11s61.03,37.2,82.57,63.32l12.53-12.86c-14.51-17.55-31.91-33.15-52.24-46.75
			c-20.33-13.61-43.3-24.32-68.9-32.14c-25.61-7.82-53.69-11.74-84.24-11.74c-43.52,0-82.02,7.78-115.54,23.31
			s-61.76,36.43-84.73,62.67c-22.97,26.25-40.33,55.75-52.09,88.56c-11.76,32.76-17.65,66.42-17.65,100.9
			c0,37.93,6.81,73.52,20.44,106.71c13.63,33.23,32.64,62.42,57.03,87.59c24.4,25.18,52.86,44.89,85.39,59.14
			c32.53,14.25,67.8,21.36,105.83,21.36c28.35,0,57.14-4.44,86.38-13.33c23.06-7.01,44.59-17.01,64.64-30.06
			c5.38-3.47,10.64-7.16,15.8-11.08c3.58-2.72,7.06-5.55,10.44-8.53l19.87-50.59C629.47,579.62,618.54,591.87,606.04,602.85z"/>
	</g>
	<g>
		<path class="st1" d="M696.04,420.27H678.9l-0.15,0.36l-7.96,19.95l-64.75,162.27l-0.02,0.02l-13.34,33.4L467.24,950.58h19.78
			l77.8-196.06h245.28l77.8,196.06h19.78L696.04,420.27z M571.09,738.46l47.83-121.79l19.87-50.59l30.18-76.84l18.51-47.12
			l2.44,6.21l113.94,290.12H571.09z"/>
	</g>
</g>
</svg>
